# xmcd
#
# Track frame offsets: 
#        150
#        34444
#        66253
#        100679
#        133619
#        167191
#        194858
#        219948
#        237991
#        264461
#
# Disc length: 3946 seconds
#
# Revision: 3
# Processed by: cddbd v1.5.2PL0 Copyright (c) Steve Scherf et al.
# Submitted via: ExactAudioCopy v0.95b4
#
DISCID=970f680a
DTITLE=Various Artist - Maximum Funk 12"
DYEAR=2007
DGENRE=Funk
TTITLE0=Stock, Aitken and Waterman - Packjammed With The Party Posse
TTITLE1=James Brown - Rapp Payback PT.1
TTITLE2=Real Thing - Boogie Down
TTITLE3=T.Connection - Do What You Wanna Do
TTITLE4=Funkadelic - One Nation Under A Groove
TTITLE5=Lakeside - Fantastic Voyage
TTITLE6=Sequence - Funky Squad
TTITLE7=Average White Band - Pick Up the Pieces
TTITLE8=B.T. Express - Do It
TTITLE9=Joe Tex - Loose Caboose
EXTD=
EXTT0=
EXTT1=
EXTT2=
EXTT3=
EXTT4=
EXTT5=
EXTT6=
EXTT7=
EXTT8=
EXTT9=
PLAYORDER=
